<svg xmlns="http://www.w3.org/2000/svg" viewBox="0 0 28 28" fill="none" stroke-linecap="round" stroke-linejoin="round">
  <g stroke="#ffffff" stroke-width="1.4" opacity="0.72">
    <path d="M3 3 Q6 4 14 9"/>
    <path d="M3 3 Q3 8 8.5 14"/>
    <path d="M3 3 Q1 8 3 14"/>
    <path d="M14 3 Q14 6 14 9"/>
    <path d="M25 3 Q22 4 14 9"/>
    <path d="M25 3 Q25 8 19.5 14"/>
    <path d="M25 3 Q27 8 25 14"/>
    <path d="M3 25 Q6 24 14 19"/>
    <path d="M3 25 Q3 20 8.5 14"/>
    <path d="M3 25 Q1 20 3 14"/>
    <path d="M14 25 Q14 22 14 19"/>
    <path d="M25 25 Q22 24 14 19"/>
    <path d="M25 25 Q25 20 19.5 14"/>
    <path d="M25 25 Q27 20 25 14"/>
    <line x1="14" y1="9" x2="14" y2="14"/>
    <line x1="14" y1="19" x2="14" y2="14"/>
    <line x1="8.5" y1="14" x2="14" y2="14"/>
    <line x1="19.5" y1="14" x2="14" y2="14"/>
    <line x1="3" y1="14" x2="8.5" y2="14"/>
    <line x1="19.5" y1="14" x2="25" y2="14"/>
  </g>
  <g fill="#ffffff">
    <circle cx="3" cy="3" r="2.2"/>
    <circle cx="14" cy="3" r="2.4"/>
    <circle cx="25" cy="3" r="2.2"/>
    <circle cx="14" cy="9" r="2.6"/>
    <circle cx="3" cy="14" r="2.2"/>
    <circle cx="8.5" cy="14" r="2.4"/>
    <circle cx="14" cy="14" r="2.8"/>
    <circle cx="19.5" cy="14" r="2.4"/>
    <circle cx="25" cy="14" r="2.2"/>
    <circle cx="14" cy="19" r="2.6"/>
    <circle cx="3" cy="25" r="2.2"/>
    <circle cx="14" cy="25" r="2.4"/>
    <circle cx="25" cy="25" r="2.2"/>
  </g>
</svg>
